<svg id="visual" viewBox="0 0 2000 540" width="2000" height="540" xmlns="http://www.w3.org/2000/svg" xmlns:xlink="http://www.w3.org/1999/xlink" version="1.1"><path d="M0 332L286 357L571 331L857 349L1143 388L1429 381L1714 390L2000 380L2000 541L1714 541L1429 541L1143 541L857 541L571 541L286 541L0 541Z" fill="#7496c1"></path><path d="M0 398L286 375L571 401L857 366L1143 360L1429 366L1714 390L2000 364L2000 541L1714 541L1429 541L1143 541L857 541L571 541L286 541L0 541Z" fill="#6e84ab"></path><path d="M0 404L286 432L571 432L857 423L1143 408L1429 397L1714 431L2000 402L2000 541L1714 541L1429 541L1143 541L857 541L571 541L286 541L0 541Z" fill="#677295"></path><path d="M0 457L286 475L571 445L857 480L1143 466L1429 434L1714 455L2000 482L2000 541L1714 541L1429 541L1143 541L857 541L571 541L286 541L0 541Z" fill="#5e627f"></path><path d="M0 497L286 477L571 516L857 489L1143 497L1429 489L1714 478L2000 513L2000 541L1714 541L1429 541L1143 541L857 541L571 541L286 541L0 541Z" fill="#54526a"></path></svg>